<svg width="155" height="33" viewBox="0 0 155 33" fill="none" xmlns="http://www.w3.org/2000/svg">
  <path d="M12.5576 23.7684C15.0249 27.8137 19.55 30.5279 24.5862 30.5279C32.0274 30.5279 36.1236 24.1062 36.1236 24.1062L36.6509 25.8168C33.2059 30.2973 27.0515 32.9963 20.166 32.9963C12.2385 32.9963 5.40166 29.2146 2.25581 23.761C1.07135 21.7069 0.410156 19.4125 0.410156 16.9961C0.410156 8.1594 9.25421 0.996338 20.1657 0.996338C27.8754 0.996338 34.0826 4.2986 37.3411 9.08421L24.405 16.8305L31.7876 5.49444C29.6755 4.16608 27.0842 2.92218 24.405 2.92218C16.8313 2.92218 10.5934 9.24233 10.5934 16.8158C10.5934 19.3533 11.314 21.7376 12.5576 23.7684ZM47.195 23.7638C47.1562 24.0222 47.1368 24.2832 47.137 24.5445C47.137 27.4193 49.4678 29.7504 52.3429 29.7504C55.218 29.7504 57.5485 27.4196 57.5485 24.5445C57.5487 24.2822 57.5292 24.0203 57.4902 23.761C57.1137 21.2593 54.9527 19.3388 52.3426 19.3388C49.7328 19.3388 47.5715 21.2593 47.195 23.7638ZM66.5117 23.761L69.0991 32.4762H60.0233L58.2387 26.5084C57.0438 29.9472 53.0109 32.4762 48.2202 32.4762C42.4881 32.4762 37.8419 28.856 37.8419 24.3895C37.8419 24.1804 37.8521 23.9728 37.872 23.761C38.2798 19.5922 42.7569 16.3027 48.2202 16.3027C51.3211 16.3027 54.1044 17.3623 56.006 19.0422L53.5339 10.7769H43.1175C43.1175 10.7769 44.8505 9.73744 52.536 6.9411C60.2215 4.14503 62.6569 10.7769 62.6569 10.7769L66.5117 23.761ZM95.5294 23.761V32.4762H86.1908V13.3281C86.1908 12.6514 85.922 12.0025 85.4436 11.5241C84.9651 11.0457 84.3162 10.7769 83.6396 10.7769C83.1257 10.7767 82.6238 10.9318 82.1995 11.2218C81.7753 11.5117 81.4484 11.923 81.2619 12.4018V32.4762H72.0965V10.7769H66.7512C66.7512 10.7769 74.1873 6.27194 76.7658 6.27194C79.2095 6.27194 81.0182 8.14944 81.2443 10.5411C84.8406 8.60133 88.4067 6.27194 90.8604 6.27194C93.3954 6.27194 95.4589 8.2922 95.5294 10.811V23.761ZM109.916 23.761L111.215 28.0566C111.24 29.8977 112.753 31.3705 114.61 31.3705C116.509 31.3705 118.047 29.832 118.047 27.9337C118.047 27.7992 118.04 27.667 118.024 27.5367L116.92 23.761L113.04 10.501C112.849 8.78277 111.392 7.44702 109.623 7.44702C107.872 7.44702 106.202 9.08336 105.989 10.7766L109.916 23.761ZM124.777 23.7627C123.009 29.1253 117.958 32.9963 112.002 32.9963C106.047 32.9963 100.995 29.1256 99.2261 23.761C98.7783 22.4013 98.5509 20.9788 98.5524 19.5473C98.5524 12.1194 104.574 6.09847 112.002 6.09847C119.43 6.09847 125.452 12.1194 125.452 19.5473C125.452 21.0195 125.215 22.4369 124.777 23.7627ZM140.24 23.761V32.4762H131.074V10.7769H125.949C125.949 10.7769 133.165 6.27194 135.744 6.27194C138.188 6.27194 139.996 8.14944 140.223 10.5411C143.819 8.60133 147.385 6.27194 149.838 6.27194C152.374 6.27194 154.437 8.2922 154.507 10.811V32.4762H145.169V13.3281C145.169 12.6514 144.9 12.0025 144.421 11.5241C143.943 11.0457 143.294 10.7769 142.617 10.7769C142.104 10.7767 141.602 10.9318 141.177 11.2218C140.753 11.5117 140.426 11.923 140.24 12.4018V23.761Z" fill="white" fill-opacity="0.85"/>
</svg>